<svg xmlns="http://www.w3.org/2000/svg" width="296" height="56" viewBox="0 0 296 56">
  <rect width="296" height="56" rx="10" fill="#749BFF"/>
  <g transform="translate(26,14)" fill="white">
    <path d="M16.5 4c.1 0 .1.1.2.1 1.1.9 1.8 2.4 2.2 3.7.1.3.2.5.3.8.1.4.3.7.4 1.1 0 .1 0 .1.1.2.2.5.3 1.1.5 1.7 0 .1.1.2.1.3 0 .1 0 .2.1.3 0 .1 0 .1.1.3 0 .2.1.3.2.5.6 2.2.6 2.2 1.5 4.4 0 .1.1.2.1.3.5 1.1 1.1 2 1.9 2.9.4.4.7.8.8 1.3 0 .3-.1.3-.3.5-.3.2-.8.2-1.2 0-.5-.2-1-.6-1.4-1-.1-.1-.1-.1-.2-.2-1.4-1.2-2.3-2.8-3.2-4.3-.8-1.3-1.6-2.6-3.1-3.1-1-.2-2-.1-2.9.3-1.3.8-2 2.1-2.7 3.4-.7 1.3-1.5 2.4-2.5 3.4-.1.1-.1.1-.2.2-.5.6-1.4 1.3-2.2 1.4-.1 0-.2 0-.3 0-.1 0-.2 0-.3 0-.2 0-.2 0-.4-.1-.1-.1-.1-.1-.2-.4.1-.6.5-1 1-1.4 2.1-2 2.9-5.4 3.6-8.1 1.9-7.2 1.9-7.2 4.3-8.7 1.2-.7 2.7-.4 3.8 0z"/>
  </g>
  <text x="66" y="34.5" font-family="-apple-system,BlinkMacSystemFont,'Segoe UI',Helvetica,Arial,sans-serif" font-size="19" font-weight="600" fill="white">Install in Antigravity</text>
</svg>
