<svg xmlns="http://www.w3.org/2000/svg" width="220" height="56" viewBox="0 0 220 56">
  <rect width="220" height="56" rx="10" fill="#8845F4"/>
  <g transform="translate(22,14)">
    <rect width="28" height="28" rx="6" fill="rgba(255,255,255,0.25)"/>
    <g transform="translate(5,4)" fill="white">
      <path d="M9 3.5a.6.6 0 00-.3.1c-.1.1-.2.3-.3.6 0 .1-.1.4 0 .6 0 .3.1.5.2.7.1.2.2.3.4.4.1 0 .3 0 .4 0 .3-.1.5-.4.6-.9 0-.2 0-.5 0-.7-.1-.3-.1-.5-.3-.6a.6.6 0 00-.4-.2.6.6 0 00-.2 0zM12.5 3.5a.7.7 0 00-.3.1c-.1.1-.2.3-.3.5 0 .1-.1.3-.1.5 0 .2 0 .4.1.5.1.4.3.6.5.7.1 0 .3 0 .4 0 .3-.1.5-.4.6-.8 0-.1 0-.4 0-.6-.1-.4-.2-.7-.4-.8a1 1 0 00-.2-.1 1 1 0 00-.3 0z"/>
      <path d="M5.5 0A4.5 4.5 0 00.5 2.5 4.5 4.5 0 000 4.3c0 .2 0 2 0 6.5 0 5.5 0 5.9 0 6.1.1.5.2 1.1.5 1.5a4.4 4.4 0 002 2c.5.3 1 .4 1.5.5.1 0 .5 0 6.2 0 5.7 0 6 0 6.2 0 .5-.1 1.1-.2 1.5-.5a4.4 4.4 0 002-2c.3-.5.4-1 .5-1.5 0-.1 0-.5 0-6.2 0-6.4 0-6-.1-6.4A4.5 4.5 0 0018 1.5a4.2 4.2 0 00-.5-.3A4.6 4.6 0 0016 0c-.2 0-10.3 0-10.5 0zm6.8 3.5a4.8 4.8 0 013.8 2.4c.1.2.3.5.3.7.2.7.4 1.4.5 2.4 0 .3 0 1.3 0 1.5-.1 1.4-.4 2.7-1 3.9a6 6 0 01-.5.9c-.6.8-1.4 1.5-2.2 1.7-.6.2-1-.1-1.3-.5a2.2 2.2 0 01-.2-.3c0-.1-.1-.1-.1-.1 0 0-.1.1-.1.1-.6.4-1.3.8-2 .8-.2 0-.6 0-.7 0-.4-.1-.8-.3-1-.6a1.6 1.6 0 01-.2-.4c-.1-.2-.1-.5-.1-.7 0-.4.1-.8.3-1.1 0 0 0-.1 0-.1-.1 0-.1 0-.1.1-.2.1-.5.2-.8.2-.5.1-.9-.1-1-.4-.1-.1-.1-.3-.1-.4 0-.2 0-.3.1-.4.1-.1.1-.3.2-.6.3-.4.3-.6.4-.8.2-.6.3-1.1.4-2.4.1-1 .2-1.3.2-1.8 0-.1.1-.2.1-.3.5-2 1.9-3.4 3.9-3.6.1 0 .2 0 .2 0 .1 0 .6 0 .7 0z"/>
    </g>
  </g>
  <text x="62" y="34.5" font-family="-apple-system,BlinkMacSystemFont,'Segoe UI',Helvetica,Arial,sans-serif" font-size="19" font-weight="600" fill="white">Install in Kiro</text>
</svg>
