<svg xmlns="http://www.w3.org/2000/svg" width="268" height="56" viewBox="0 0 268 56">
  <rect width="268" height="56" rx="10" fill="#0DB39E"/>
  <g transform="translate(28,20)" fill="white">
    <path fill-rule="evenodd" clip-rule="evenodd" d="M18.7 0h-.2a2.4 2.4 0 00-2.4 2.4v5.4c0 1.1-.9 2-2 2a2.1 2.1 0 01-1.6-.9L8.6 3.6A2.4 2.4 0 006.6 2.5c-1.3 0-2.3 1.1-2.3 2.4v5.4c0 1.1-.9 2-2 2-.6 0-1.3-.3-1.6-.9L.2 2.2C.1 2 0 2.1 0 2.3v4.7c0 .2.1.5.2.7l6 8.6c.4.5.9.9 1.5 1 1.5.3 2.9-.8 2.9-2.3v-5.6c0-1.1.9-2 2-2h0c.6 0 1.3.3 1.6.9l5.4 7.8c.4.5 1 1.1 2 1.1 1.3 0 2.3-1.1 2.3-2.4V9.2c0-1.1.9-2 2-2h.2c.1 0 .2-.1.2-.2V.2c0-.1-.1-.2-.2-.2z"/>
  </g>
  <text x="68" y="34.5" font-family="-apple-system,BlinkMacSystemFont,'Segoe UI',Helvetica,Arial,sans-serif" font-size="19" font-weight="600" fill="white">Install in Windsurf</text>
</svg>
